<svg width="1024" height="1024" viewBox="0 0 1024 1024" fill="none" xmlns="http://www.w3.org/2000/svg">
<g clip-path="url(#clip0_1_2)">
<rect width="1024" height="1024" fill="white"/>
<path d="M707.798 309.257C708.785 309.782 710.277 309.293 711.429 308.875C731.939 301.41 756.39 295.471 779.45 296.471C782.053 296.587 784.689 296.963 787.36 297.602C789.458 298.106 789.766 299.142 788.282 300.712C775.768 313.929 771.201 343.892 773.189 361.177C773.83 366.734 778.967 363.235 781.279 361.616C819.951 334.583 874.118 319.775 920.432 333.978C921.796 334.396 923.026 335.063 924.121 335.98C925.086 336.791 925.012 337.487 923.898 338.068C906.485 347.16 890.99 363.826 880.616 380.268C875.4 388.533 873.188 395.826 871.712 406.271C865.783 448.127 854.566 487.412 825.62 519.484C823.848 521.449 814.101 529.67 822.501 530.11C829.057 530.455 839.08 531.151 852.571 532.197C889.71 535.077 925.562 541.875 960.127 552.592C962.869 553.442 965.544 554.457 968.152 555.637C969.502 556.252 969.802 557.183 969.052 558.431C968.207 559.832 967.179 561.087 965.969 562.196C938.104 587.702 904.699 609.033 871.978 627.722C867.886 630.054 872.346 632.84 874.211 634.05C897.389 649.096 918.288 666.812 936.908 687.2C939.66 690.217 938.81 693.564 934.379 693.687C903.049 694.507 869.154 693.442 840.158 698.963C835.727 699.813 832.298 701.044 828.214 702.772C768.255 728.127 691.733 719.61 636.81 685.537C632.149 682.643 632.055 689.965 631.853 693.269C630.009 723.923 611.048 741.711 585.359 755.253C559.28 769.003 532.748 782.084 520.515 810.988C519.454 813.493 518.678 815.084 518.188 815.761C512.375 823.781 506.691 818.785 503.982 812.176C496.691 794.387 483.703 781.054 467.292 771.249C435.666 752.366 396.037 739.724 392.283 695.429C391.899 690.903 391.582 688.086 391.332 686.977C390.691 684.105 388.537 684.76 386.65 685.912C330.43 720.287 255.256 727.695 194.453 702.246C190.153 700.446 186.111 699.172 182.055 698.495C170.553 696.566 158.126 695.366 144.775 694.896C133.776 694.507 115.428 694.097 89.7285 693.665C84.5992 693.571 84.6353 689.893 87.4953 686.754C106.355 666.1 128.234 647.757 151.755 632.581C155.667 630.054 153.038 628.269 150.502 626.807C118.3 608.363 86.53 587.623 58.8089 562.851C54.3063 558.819 52.6566 556.192 59.911 553.859C106.154 538.993 153.254 532.435 201.65 530.102C209.049 529.742 201.852 523.155 200.073 521.262C174.131 493.618 160.926 458.565 154.767 421.67C154.125 417.847 152.843 411.052 152.295 405.897C151.301 396.615 148.329 388.127 143.377 380.434C132.211 363.077 118.084 347.966 100.167 338.132C99.2018 337.6 99.1058 336.94 99.879 336.153C102.112 333.863 105.455 333.107 109.324 332.244C156.431 321.711 206.571 335.512 245.314 363.336C248.923 365.928 250.587 363.221 250.818 359.902C252.057 342.394 248.613 313.605 235.214 300.524C234.98 300.294 234.832 299.99 234.795 299.664C234.759 299.338 234.835 299.009 235.012 298.732C236.684 296.133 248.7 296.255 251.754 296.342C272.207 296.939 292.32 301.676 311.526 308.544C312.664 308.952 313.82 309.276 314.991 309.516C315.846 309.694 316.483 309.399 316.9 308.631C317.64 307.272 318.219 305.852 318.637 304.369C325.615 279.503 329.306 254.163 329.709 228.347C329.781 223.891 330.523 220.01 336.222 222.278C361.7 232.405 385.154 245.363 406.583 261.153C411.626 264.868 413.081 263.385 415.639 258.36C422.31 245.207 429.809 233.688 441.084 224.661C448.489 218.736 459.072 211.976 466.326 206.138C479.856 195.248 491.058 182.81 499.933 168.825C503.081 163.865 506.835 156.111 513.354 157.335C516.92 158.005 519.435 161.496 521.322 164.549C528.833 176.706 537.776 187.823 548.15 197.902C557.63 207.11 568.66 214.057 579.242 221.846C593.225 232.133 601.2 244.113 609.031 259.756C611.927 265.551 614.931 262.945 618.562 260.303C639.598 244.979 662.61 232.304 687.598 222.278C693.232 220.017 694.212 223.617 694.298 228.188C694.773 253.997 698.419 281.742 706.53 307.731C706.734 308.386 707.189 308.935 707.798 309.257Z" stroke="#808080" stroke-width="2"/>
<path d="M565.281 313.67C562.688 315.998 560.08 315.983 557.457 313.627C544.692 302.123 537.099 287.617 530.903 271.865C527.726 263.759 524.016 254.976 516.884 250.505C505.444 243.342 495.777 263.845 493.27 271.411C492.04 275.117 489.759 280.372 486.426 287.177C481.479 297.27 474.861 306.099 466.571 313.663C461.37 318.4 457.228 312.576 453.979 309.264C446.261 301.398 440.101 292.965 435.5 283.967C424.147 261.758 446.285 243.162 461.889 231.234C479.2 217.987 495.892 205.9 508.758 189.191C510.35 187.125 512.18 185.073 514.385 188.039C530.226 209.356 552.804 222.443 572.017 239.332C581.627 247.777 592.635 259.317 591.533 273.312C590.416 287.566 575.223 304.743 565.281 313.67Z" stroke="#808080" stroke-width="2"/>
<path d="M684.22 324.908C663.472 336.892 644.405 350.239 627.02 364.949C621.405 369.695 615.822 374.48 610.27 379.304C608.685 380.686 607.324 381.413 605.969 379.261C599.075 368.34 593.103 358.103 584.487 348.348C579.696 342.927 576.591 340.386 580.258 333.683C600.703 296.277 631.925 266.091 669.984 247.316C672.655 245.996 675.409 244.885 678.247 243.983C678.361 243.948 678.479 243.938 678.59 243.956C678.702 243.974 678.805 244.017 678.889 244.084C679.787 244.799 680.168 245.869 680.034 247.295C679.438 253.692 679.489 260.711 680.185 268.352C681.761 285.62 683.809 302.831 686.33 319.984C686.662 322.263 685.958 323.905 684.22 324.908Z" stroke="#808080" stroke-width="2"/>
<path d="M416.741 380.384C415.084 380.736 414.133 379.793 412.959 378.721C390.54 358.304 366.543 340.191 340.112 325.347C336.841 323.504 337.85 319.213 338.246 316.449C340.686 299.637 342.59 282.764 343.959 265.832C344.468 259.531 344.463 253.231 343.944 246.935C343.843 245.706 344.23 244.756 345.104 244.084C345.192 244.017 345.295 243.971 345.408 243.949C345.52 243.928 345.638 243.932 345.752 243.961C347.107 244.297 348.418 244.761 349.686 245.351C388.696 263.392 421.942 294.053 442.582 331.603C446.249 338.284 446.494 340.609 441.264 346.325C434.112 354.153 427.746 362.897 422.166 372.558C420.806 374.915 419.392 377.252 417.922 379.57C417.79 379.777 417.617 379.956 417.414 380.096C417.211 380.235 416.983 380.333 416.741 380.384Z" stroke="#808080" stroke-width="2"/>
<path d="M574.718 571.475C559.77 585.377 540.838 592.389 520.652 593.468C492.736 594.966 468.221 589.567 447.546 569.892C423.873 547.366 408.831 516.777 407.311 483.956C405.589 446.565 421.899 405.832 443.101 375.719C454.836 359.046 466.838 345.108 479.323 330.242C492.412 314.656 502.483 297.242 509.788 278.229C511.777 273.06 513.679 276.969 514.536 279.172C522.009 298.394 532.45 315.851 545.859 331.545C560.008 348.11 574.063 364.978 585.892 383.306C598.768 403.257 607.84 424.819 613.109 447.99C623.785 494.935 609.824 538.835 574.718 571.475Z" stroke="#808080" stroke-width="2"/>
<path d="M760.539 422.772C760.503 486.836 730.34 552.887 667.024 577.328C646.823 585.127 625.526 589.12 603.131 589.307C601.671 589.317 600.36 589.012 599.198 588.393C599.006 588.29 598.859 588.12 598.786 587.915C598.713 587.71 598.718 587.485 598.801 587.284C599.522 585.578 600.523 584.729 601.798 583.483C610.126 575.358 616.98 567.187 622.359 558.971C648.286 519.333 646.751 471.516 630.117 428.445C625.67 416.94 622.272 408.796 619.924 404.011C616.696 397.431 621.926 391.852 626.522 387.662C650.728 365.609 677.385 347.066 706.494 332.035C722.214 323.921 740.188 316.823 757.946 315.319C760.304 315.117 760.678 315.882 759.069 317.615C753.746 323.338 752.463 335.987 752.168 343.762C751.563 359.679 753.472 374.639 756.966 390.102C759.353 400.675 760.544 411.565 760.539 422.772Z" stroke="#808080" stroke-width="2"/>
<path d="M422.086 583.167C423.787 584.815 428.037 588.911 422.094 589.12C418.492 589.24 414.121 589.103 408.982 588.71C364.087 585.254 325.343 568.344 297.824 532.384C273.093 500.075 262.07 456.082 263.67 415.573C264.025 406.559 265.516 396.481 268.143 385.337C271.822 369.739 272.836 353.402 271.184 336.325C270.686 331.214 268.943 321.258 264.945 317.802C261.926 315.189 265.781 315.283 267.084 315.419C287.443 317.529 307.83 326.484 325.415 336.203C351.328 350.522 376.766 368.088 398.342 388.411C401.043 390.959 405.877 396.509 405.2 400.455C404.936 401.995 403.843 404.87 401.922 409.079C397.033 419.796 392.852 430.782 389.38 442.036C373.07 494.834 382.018 544.443 422.086 583.167Z" stroke="#808080" stroke-width="2"/>
<path d="M880.133 348.254C865.999 359.809 853.658 376.381 850.438 394.523C840.605 449.876 808.849 504.351 762.743 537.582C757.895 541.081 755.208 543.147 750.396 544.393C749.8 544.546 749.596 544.33 749.783 543.745C750.345 541.938 751.368 540.786 752.471 539.296C781.243 500.435 785.616 444.34 781.193 397.921C780.754 393.284 780.79 389.296 783.635 386.1C805.528 361.529 843.14 351.609 874.694 346.123C876.735 345.768 878.447 345.855 879.831 346.382C881.007 346.834 881.108 347.458 880.133 348.254Z" stroke="#808080" stroke-width="2"/>
<path d="M143.636 346.598C146.561 345.627 148.362 346.116 152.151 346.771C181.003 351.746 213.335 360.723 235.437 381.111C240.134 385.445 243.693 389.159 243.109 395.235C238.614 441.972 241.914 495.223 268.439 534.998C269.836 537.093 272.365 540.159 274.015 542.996C274.754 544.263 274.423 544.683 273.021 544.256C268.648 542.931 265.881 540.944 261.537 537.798C215.359 504.33 183.856 450.884 173.735 395.264C170.378 376.813 158.109 359.514 143.413 347.865C142.707 347.309 142.781 346.886 143.636 346.598Z" stroke="#808080" stroke-width="2"/>
<path d="M926.866 566.666C903.071 583.519 876.466 597.327 850.006 609.278C849.795 609.373 849.564 609.416 849.334 609.402C849.105 609.388 848.882 609.318 848.688 609.198C826.247 595.621 803.41 584.268 777.512 578.948C774.176 578.264 774.76 576.205 777.252 574.931C789.859 568.457 801.511 560.605 812.206 551.376C812.936 550.747 813.779 550.473 814.735 550.555C824.398 551.361 834.068 551.961 843.746 552.355C871.82 553.506 899.008 556.221 926.931 563.232C927.905 563.477 928.263 564.077 928.004 565.032C927.822 565.693 927.421 566.27 926.866 566.666Z" stroke="#808080" stroke-width="2"/>
<path d="M247.994 578.394C247.624 578.634 247.225 578.799 246.798 578.89C220.662 584.39 197.962 595.412 175.428 609.134C175.181 609.282 174.902 609.369 174.614 609.387C174.327 609.404 174.04 609.352 173.778 609.234C147.246 597.169 121.297 583.411 97.2927 566.832C96.8173 566.506 96.4547 566.081 96.2049 565.558C95.547 564.176 96.0032 563.295 97.5737 562.916C113.6 559.062 129.814 556.331 146.215 554.723C168.288 552.563 188.265 552.211 209.179 550.577C210.192 550.495 211.08 550.785 211.844 551.448C222.439 560.586 234.155 568.435 246.993 574.996C247.478 575.245 247.905 575.569 248.275 575.968C249.144 576.903 249.05 577.712 247.994 578.394Z" stroke="#808080" stroke-width="2"/>
<path d="M893.936 673.745C899.051 678.36 886.509 677.683 885.169 677.661C867.461 677.438 849.466 677.431 832.406 682.73C827.397 684.285 824.888 685.062 824.878 685.062C796.17 693.089 764.89 693.888 735.447 690.577C714.678 688.237 694.312 684.213 674.422 677.697C657.817 672.262 639.562 664.293 629.289 650.759C624.971 645.066 620.068 639.989 614.578 635.525C607.1 629.435 598.679 625.54 589.487 621.962C588.046 621.394 583.954 619.291 583.586 617.427C582.96 614.245 590.524 615.534 592.087 615.62C610.414 616.599 629.764 619.975 648.56 617.204C658.256 615.778 670.172 611.409 676.432 609.767C754.43 589.307 836.196 621.617 893.936 673.745Z" stroke="#808080" stroke-width="2"/>
<path d="M440.284 617.78C439.751 619.14 437.582 620.523 436.314 621.062C427.703 624.734 422.389 627.102 420.372 628.168C410.308 633.502 401.778 641.666 394.416 651.198C387.838 659.707 378.704 665.358 369.497 669.656C334.795 685.854 293.379 692.297 255.356 692.283C233.326 692.276 211.39 689.353 190.7 682.478C179.109 678.626 167.035 678.093 153.599 677.719C146.215 677.51 138.694 677.985 131.339 677.366C129.041 677.172 127.888 675.646 129.963 673.796C166.732 640.925 207.529 618.838 256.242 608.097C291.259 600.375 325.91 602.167 360.197 613.475C370.59 616.901 381.268 618.5 392.233 618.269C406.497 617.974 421.546 615.886 437.517 615.375C438.958 615.332 440.975 616.009 440.284 617.78Z" stroke="#808080" stroke-width="2"/>
<path d="M602.353 680.851C603.83 711.238 581.93 728.53 557.414 740.43C544.598 746.657 531.12 753.561 519.867 762.344C517.511 764.172 515.703 766.282 513.844 768.557C513.066 769.507 512.135 769.694 511.049 769.118C510.189 768.662 509.411 767.873 508.715 766.75C507.86 765.377 505.747 763.474 502.375 761.041C481.001 745.592 455.484 738.069 436.315 719.776C418.463 702.75 417.634 674.278 429.687 653.941C434.975 645.006 443.036 637.246 451.587 631.048C457.919 626.455 465.318 621.797 472.378 619.846C481.873 617.225 489.523 618.579 499.271 620.278C508.429 621.871 517.6 621.751 526.783 619.918C543.395 616.599 554.1 618.816 568.055 628.082C586.929 640.601 601.2 657.029 602.353 680.851Z" stroke="#808080" stroke-width="2"/>
<path d="M-58.7394 54.9287V967.359C-58.7394 967.508 -58.6801 967.65 -58.5747 967.756C-58.4694 967.861 -58.3265 967.92 -58.1774 967.92H1082.44C1082.5 967.92 1082.56 967.909 1082.61 967.887C1082.66 967.865 1082.71 967.834 1082.75 967.793C1082.79 967.753 1082.82 967.705 1082.84 967.653C1082.86 967.601 1082.87 967.545 1082.87 967.488C1082.67 953.018 1082.92 938.512 1082.92 924.013C1082.93 634.362 1082.92 344.705 1082.88 55.0439C1076.36 54.9479 1065.14 54.8999 1049.24 54.8999C679.914 54.8855 310.587 54.8951 -58.7394 54.9287ZM707.798 309.257C708.785 309.783 710.277 309.293 711.429 308.875C731.939 301.41 756.39 295.471 779.45 296.471C782.053 296.587 784.689 296.963 787.36 297.602C789.458 298.106 789.766 299.142 788.282 300.712C775.768 313.929 771.201 343.892 773.189 361.177C773.83 366.734 778.967 363.235 781.279 361.616C819.951 334.583 874.118 319.775 920.432 333.979C921.796 334.396 923.026 335.063 924.121 335.98C925.086 336.791 925.012 337.487 923.898 338.068C906.485 347.16 890.99 363.826 880.616 380.268C875.4 388.533 873.188 395.826 871.712 406.271C865.783 448.127 854.566 487.412 825.62 519.484C823.848 521.449 814.101 529.67 822.501 530.11C829.057 530.455 839.08 531.151 852.571 532.197C889.71 535.077 925.562 541.875 960.127 552.592C962.869 553.442 965.544 554.457 968.152 555.637C969.502 556.252 969.802 557.183 969.052 558.431C968.207 559.832 967.179 561.087 965.969 562.196C938.104 587.702 904.699 609.033 871.978 627.722C867.886 630.054 872.346 632.84 874.211 634.05C897.389 649.096 918.288 666.812 936.908 687.2C939.66 690.217 938.81 693.564 934.379 693.687C903.049 694.507 869.154 693.442 840.158 698.963C835.727 699.813 832.298 701.044 828.214 702.772C768.255 728.127 691.733 719.61 636.81 685.537C632.149 682.643 632.055 689.965 631.853 693.269C630.009 723.923 611.048 741.711 585.359 755.253C559.28 769.003 532.748 782.084 520.515 810.988C519.454 813.493 518.678 815.084 518.188 815.761C512.375 823.781 506.691 818.785 503.982 812.176C496.691 794.387 483.703 781.054 467.292 771.249C435.666 752.366 396.037 739.724 392.283 695.429C391.899 690.903 391.582 688.086 391.332 686.977C390.691 684.105 388.537 684.76 386.65 685.912C330.43 720.287 255.255 727.695 194.453 702.246C190.153 700.446 186.111 699.172 182.055 698.496C170.553 696.566 158.126 695.366 144.774 694.896C133.776 694.507 115.428 694.097 89.7285 693.665C84.5992 693.571 84.6352 689.893 87.4952 686.754C106.355 666.1 128.234 647.757 151.755 632.581C155.667 630.054 153.037 628.269 150.502 626.807C118.3 608.363 86.5299 587.623 58.8088 562.851C54.3063 558.819 52.6565 556.192 59.911 553.859C106.154 538.993 153.254 532.435 201.65 530.102C209.049 529.742 201.852 523.155 200.073 521.262C174.131 493.618 160.926 458.565 154.766 421.67C154.125 417.848 152.843 411.052 152.295 405.897C151.301 396.615 148.329 388.127 143.377 380.434C132.211 363.077 118.084 347.966 100.167 338.132C99.2018 337.6 99.1058 336.94 99.879 336.153C102.112 333.863 105.455 333.107 109.323 332.244C156.431 321.711 206.571 335.512 245.314 363.336C248.923 365.928 250.587 363.221 250.818 359.902C252.057 342.394 248.613 313.605 235.214 300.525C234.98 300.294 234.832 299.99 234.795 299.664C234.759 299.338 234.835 299.009 235.012 298.732C236.684 296.133 248.7 296.255 251.754 296.342C272.207 296.939 292.32 301.676 311.526 308.544C312.664 308.952 313.82 309.276 314.991 309.516C315.846 309.694 316.483 309.399 316.9 308.631C317.64 307.272 318.219 305.852 318.637 304.369C325.615 279.503 329.306 254.163 329.709 228.347C329.781 223.891 330.523 220.01 336.222 222.278C361.7 232.405 385.154 245.363 406.583 261.153C411.626 264.868 413.081 263.385 415.639 258.36C422.31 245.207 429.809 233.688 441.083 224.661C448.489 218.736 459.072 211.976 466.326 206.138C479.856 195.248 491.058 182.81 499.933 168.825C503.081 163.865 506.835 156.111 513.354 157.335C516.92 158.005 519.435 161.496 521.322 164.549C528.833 176.706 537.776 187.823 548.15 197.902C557.63 207.11 568.66 214.057 579.242 221.846C593.225 232.133 601.2 244.113 609.031 259.756C611.927 265.551 614.931 262.945 618.562 260.303C639.598 244.979 662.61 232.304 687.598 222.278C693.232 220.017 694.212 223.617 694.298 228.188C694.773 253.997 698.419 281.742 706.53 307.731C706.734 308.386 707.189 308.935 707.798 309.257Z" fill="white"/>
<path d="M707.798 309.257C707.189 308.935 706.734 308.386 706.53 307.731C698.419 281.742 694.773 253.997 694.298 228.188C694.212 223.617 693.232 220.017 687.598 222.278C662.61 232.304 639.598 244.979 618.562 260.303C614.931 262.945 611.927 265.551 609.031 259.756C601.2 244.113 593.225 232.133 579.242 221.846C568.66 214.057 557.63 207.11 548.15 197.902C537.776 187.823 528.833 176.706 521.322 164.549C519.435 161.496 516.92 158.005 513.354 157.335C506.835 156.111 503.081 163.865 499.933 168.825C491.058 182.81 479.856 195.248 466.326 206.138C459.072 211.976 448.489 218.736 441.084 224.661C429.809 233.688 422.31 245.207 415.639 258.36C413.081 263.385 411.626 264.868 406.583 261.153C385.154 245.363 361.7 232.405 336.222 222.278C330.523 220.01 329.781 223.891 329.709 228.347C329.306 254.163 325.615 279.503 318.637 304.369C318.219 305.852 317.64 307.272 316.9 308.631C316.483 309.399 315.846 309.694 314.991 309.516C313.82 309.276 312.664 308.952 311.526 308.544C292.32 301.676 272.207 296.939 251.754 296.342C248.7 296.255 236.684 296.133 235.012 298.732C234.835 299.009 234.759 299.338 234.795 299.664C234.832 299.99 234.98 300.294 235.214 300.524C248.613 313.605 252.057 342.394 250.818 359.902C250.587 363.221 248.923 365.928 245.314 363.336C206.571 335.512 156.431 321.711 109.324 332.244C105.455 333.107 102.112 333.863 99.879 336.153C99.1058 336.94 99.2018 337.6 100.167 338.132C118.084 347.966 132.211 363.077 143.377 380.434C148.329 388.127 151.301 396.615 152.295 405.897C152.843 411.052 154.125 417.847 154.767 421.67C160.926 458.565 174.131 493.618 200.073 521.262C201.852 523.155 209.049 529.742 201.65 530.102C153.254 532.435 106.154 538.993 59.911 553.859C52.6566 556.192 54.3063 558.819 58.8089 562.851C86.53 587.623 118.3 608.363 150.502 626.807C153.038 628.269 155.667 630.054 151.755 632.581C128.234 647.757 106.355 666.1 87.4953 686.754C84.6353 689.893 84.5992 693.571 89.7285 693.665C115.428 694.097 133.776 694.507 144.775 694.896C158.126 695.366 170.553 696.566 182.055 698.495C186.111 699.172 190.153 700.446 194.453 702.246C255.256 727.695 330.43 720.287 386.65 685.912C388.537 684.76 390.691 684.105 391.332 686.977C391.582 688.086 391.899 690.903 392.283 695.429C396.037 739.724 435.666 752.366 467.292 771.249C483.703 781.054 496.691 794.387 503.982 812.176C506.691 818.785 512.375 823.781 518.188 815.761C518.678 815.084 519.454 813.493 520.515 810.988C532.748 782.084 559.28 769.003 585.359 755.253C611.048 741.711 630.009 723.923 631.853 693.269C632.055 689.965 632.149 682.643 636.81 685.537C691.733 719.61 768.255 728.127 828.214 702.772C832.298 701.044 835.727 699.813 840.158 698.963C869.154 693.442 903.049 694.507 934.379 693.687C938.81 693.564 939.66 690.217 936.908 687.2C918.288 666.812 897.389 649.096 874.211 634.05C872.346 632.84 867.886 630.054 871.978 627.722C904.699 609.033 938.104 587.702 965.969 562.196C967.179 561.087 968.207 559.832 969.052 558.431C969.802 557.183 969.502 556.252 968.152 555.637C965.544 554.457 962.869 553.442 960.127 552.592C925.562 541.875 889.71 535.077 852.571 532.197C839.08 531.151 829.057 530.455 822.501 530.11C814.101 529.67 823.848 521.449 825.62 519.484C854.566 487.412 865.783 448.127 871.712 406.271C873.188 395.826 875.4 388.533 880.616 380.268C890.99 363.826 906.485 347.16 923.898 338.068C925.012 337.487 925.086 336.791 924.121 335.98C923.026 335.063 921.796 334.396 920.432 333.978C874.118 319.775 819.951 334.583 781.279 361.616C778.967 363.235 773.83 366.734 773.189 361.177C771.201 343.892 775.768 313.929 788.282 300.712C789.766 299.142 789.458 298.106 787.36 297.602C784.689 296.963 782.053 296.587 779.45 296.471C756.39 295.471 731.939 301.41 711.429 308.875C710.277 309.293 708.785 309.782 707.798 309.257ZM565.281 313.67C562.688 315.998 560.08 315.983 557.457 313.627C544.692 302.123 537.099 287.617 530.903 271.865C527.726 263.759 524.016 254.976 516.884 250.505C505.444 243.342 495.777 263.845 493.27 271.411C492.04 275.117 489.759 280.372 486.426 287.177C481.479 297.27 474.861 306.099 466.571 313.663C461.37 318.4 457.228 312.576 453.979 309.264C446.261 301.398 440.101 292.965 435.5 283.967C424.147 261.758 446.285 243.162 461.889 231.234C479.2 217.987 495.892 205.9 508.758 189.191C510.35 187.125 512.18 185.073 514.385 188.039C530.226 209.356 552.804 222.444 572.017 239.332C581.627 247.777 592.635 259.317 591.533 273.312C590.416 287.566 575.223 304.743 565.281 313.67ZM684.22 324.908C663.472 336.892 644.405 350.239 627.02 364.949C621.405 369.695 615.822 374.48 610.27 379.304C608.685 380.686 607.324 381.413 605.969 379.261C599.075 368.34 593.103 358.103 584.487 348.348C579.696 342.927 576.591 340.386 580.258 333.683C600.703 296.277 631.925 266.091 669.984 247.316C672.655 245.996 675.409 244.885 678.247 243.983C678.361 243.948 678.479 243.938 678.59 243.956C678.702 243.974 678.804 244.017 678.889 244.084C679.787 244.799 680.168 245.869 680.034 247.295C679.438 253.692 679.489 260.711 680.185 268.352C681.761 285.62 683.809 302.831 686.33 319.984C686.662 322.263 685.958 323.905 684.22 324.908ZM416.741 380.384C415.084 380.736 414.133 379.793 412.959 378.721C390.54 358.304 366.543 340.191 340.112 325.347C336.841 323.504 337.85 319.213 338.246 316.449C340.686 299.637 342.59 282.764 343.959 265.832C344.468 259.531 344.463 253.231 343.944 246.935C343.844 245.706 344.23 244.756 345.104 244.084C345.192 244.017 345.296 243.971 345.408 243.949C345.52 243.928 345.638 243.932 345.753 243.961C347.107 244.297 348.418 244.761 349.686 245.351C388.696 263.392 421.942 294.053 442.582 331.603C446.249 338.284 446.494 340.609 441.264 346.325C434.112 354.153 427.746 362.897 422.166 372.558C420.807 374.915 419.392 377.252 417.923 379.57C417.79 379.777 417.617 379.956 417.415 380.096C417.212 380.235 416.983 380.333 416.741 380.384ZM574.718 571.475C559.77 585.377 540.838 592.389 520.652 593.468C492.736 594.966 468.221 589.567 447.546 569.892C423.873 547.366 408.831 516.777 407.311 483.956C405.589 446.564 421.899 405.832 443.101 375.719C454.836 359.046 466.838 345.108 479.323 330.242C492.412 314.656 502.483 297.242 509.788 278.229C511.777 273.06 513.679 276.969 514.536 279.172C522.009 298.394 532.45 315.851 545.859 331.545C560.008 348.11 574.063 364.978 585.892 383.306C598.768 403.257 607.84 424.819 613.109 447.99C623.785 494.935 609.824 538.835 574.718 571.475ZM760.539 422.772C760.503 486.836 730.34 552.887 667.024 577.328C646.823 585.127 625.526 589.12 603.131 589.307C601.671 589.317 600.36 589.012 599.198 588.393C599.006 588.29 598.859 588.12 598.786 587.915C598.713 587.71 598.718 587.486 598.801 587.284C599.522 585.578 600.523 584.729 601.798 583.483C610.126 575.358 616.98 567.187 622.359 558.971C648.286 519.333 646.751 471.516 630.117 428.444C625.67 416.94 622.272 408.796 619.924 404.011C616.696 397.431 621.926 391.852 626.522 387.662C650.728 365.609 677.385 347.066 706.494 332.035C722.214 323.921 740.188 316.823 757.946 315.319C760.304 315.117 760.678 315.882 759.069 317.615C753.746 323.338 752.463 335.987 752.168 343.762C751.563 359.679 753.472 374.639 756.966 390.102C759.353 400.675 760.544 411.565 760.539 422.772ZM422.087 583.167C423.787 584.815 428.037 588.911 422.094 589.12C418.492 589.24 414.121 589.103 408.982 588.71C364.087 585.254 325.344 568.344 297.824 532.384C273.093 500.075 262.071 456.082 263.67 415.573C264.025 406.559 265.517 396.481 268.144 385.337C271.822 369.739 272.836 353.402 271.184 336.325C270.687 331.214 268.943 321.258 264.945 317.802C261.927 315.189 265.781 315.283 267.085 315.419C287.443 317.529 307.831 326.484 325.416 336.203C351.329 350.522 376.766 368.088 398.342 388.411C401.044 390.959 405.877 396.509 405.2 400.455C404.936 401.995 403.844 404.87 401.922 409.079C397.033 419.796 392.853 430.782 389.38 442.036C373.07 494.834 382.018 544.443 422.087 583.167ZM880.133 348.254C865.999 359.809 853.658 376.381 850.438 394.523C840.605 449.876 808.849 504.351 762.743 537.582C757.895 541.081 755.208 543.147 750.396 544.392C749.8 544.546 749.596 544.33 749.783 543.745C750.345 541.938 751.368 540.786 752.471 539.296C781.243 500.435 785.616 444.34 781.193 397.92C780.754 393.284 780.79 389.296 783.635 386.1C805.528 361.529 843.14 351.609 874.694 346.123C876.735 345.768 878.447 345.855 879.831 346.382C881.007 346.834 881.108 347.457 880.133 348.254ZM143.636 346.598C146.561 345.627 148.362 346.116 152.151 346.771C181.004 351.746 213.335 360.723 235.437 381.111C240.134 385.445 243.693 389.159 243.11 395.235C238.614 441.972 241.914 495.223 268.439 534.998C269.837 537.093 272.365 540.159 274.015 542.996C274.754 544.263 274.423 544.683 273.021 544.256C268.648 542.931 265.881 540.944 261.537 537.798C215.36 504.33 183.856 450.884 173.735 395.264C170.378 376.813 158.109 359.514 143.413 347.865C142.707 347.309 142.781 346.886 143.636 346.598ZM926.866 566.666C903.071 583.519 876.466 597.327 850.006 609.278C849.795 609.373 849.564 609.416 849.334 609.402C849.105 609.388 848.882 609.318 848.688 609.198C826.247 595.621 803.41 584.268 777.512 578.948C774.176 578.264 774.76 576.205 777.252 574.931C789.859 568.457 801.511 560.605 812.206 551.376C812.936 550.747 813.779 550.473 814.735 550.555C824.398 551.361 834.068 551.961 843.746 552.355C871.82 553.506 899.008 556.221 926.931 563.232C927.905 563.477 928.263 564.077 928.004 565.032C927.822 565.693 927.42 566.27 926.866 566.666ZM247.994 578.394C247.624 578.634 247.225 578.799 246.798 578.89C220.662 584.39 197.962 595.412 175.428 609.134C175.181 609.282 174.902 609.369 174.614 609.387C174.327 609.404 174.04 609.352 173.778 609.234C147.246 597.169 121.297 583.411 97.2927 566.832C96.8173 566.506 96.4547 566.081 96.2049 565.558C95.5469 564.176 96.0032 563.295 97.5737 562.916C113.6 559.062 129.814 556.331 146.215 554.723C168.288 552.563 188.265 552.211 209.179 550.577C210.192 550.495 211.08 550.785 211.844 551.448C222.439 560.586 234.155 568.435 246.993 574.996C247.478 575.245 247.905 575.569 248.275 575.968C249.144 576.903 249.051 577.712 247.994 578.394ZM893.936 673.745C899.051 678.36 886.509 677.683 885.169 677.661C867.461 677.438 849.466 677.431 832.406 682.73C827.397 684.285 824.888 685.062 824.878 685.062C796.17 693.089 764.89 693.888 735.447 690.577C714.678 688.237 694.312 684.213 674.422 677.697C657.817 672.262 639.562 664.293 629.289 650.759C624.971 645.066 620.068 639.989 614.578 635.525C607.1 629.435 598.679 625.54 589.487 621.962C588.046 621.394 583.954 619.291 583.586 617.427C582.96 614.245 590.524 615.534 592.087 615.62C610.414 616.599 629.764 619.975 648.56 617.204C658.256 615.778 670.172 611.408 676.432 609.767C754.43 589.307 836.196 621.617 893.936 673.745ZM440.284 617.78C439.751 619.14 437.582 620.523 436.314 621.062C427.703 624.734 422.389 627.102 420.372 628.168C410.308 633.502 401.778 641.666 394.416 651.198C387.839 659.707 378.704 665.358 369.497 669.656C334.795 685.854 293.379 692.297 255.356 692.283C233.327 692.275 211.39 689.353 190.7 682.478C179.109 678.626 167.035 678.093 153.599 677.719C146.215 677.51 138.694 677.985 131.339 677.366C129.041 677.172 127.888 675.646 129.963 673.796C166.732 640.925 207.529 618.838 256.243 608.097C291.259 600.375 325.91 602.167 360.197 613.475C370.59 616.901 381.268 618.5 392.233 618.269C406.497 617.974 421.546 615.886 437.518 615.375C438.958 615.332 440.975 616.009 440.284 617.78ZM602.353 680.851C603.83 711.238 581.93 728.53 557.414 740.43C544.598 746.657 531.119 753.561 519.867 762.344C517.511 764.172 515.703 766.282 513.844 768.557C513.066 769.507 512.134 769.694 511.049 769.118C510.189 768.662 509.411 767.873 508.715 766.75C507.86 765.377 505.747 763.474 502.375 761.041C481.001 745.592 455.484 738.069 436.314 719.776C418.463 702.75 417.634 674.278 429.687 653.941C434.975 645.006 443.036 637.246 451.587 631.048C457.919 626.455 465.318 621.797 472.378 619.846C481.873 617.225 489.523 618.579 499.27 620.278C508.429 621.871 517.6 621.751 526.783 619.918C543.395 616.599 554.1 618.816 568.055 628.082C586.929 640.601 601.2 657.029 602.353 680.851Z" fill="url(#paint0_radial_1_2)"/>
<path d="M565.281 313.67C575.223 304.743 590.416 287.566 591.533 273.312C592.635 259.317 581.627 247.777 572.017 239.332C552.804 222.443 530.226 209.356 514.385 188.039C512.18 185.073 510.35 187.125 508.758 189.191C495.892 205.9 479.2 217.987 461.889 231.234C446.285 243.162 424.147 261.758 435.5 283.967C440.101 292.965 446.261 301.398 453.979 309.264C457.228 312.576 461.37 318.4 466.571 313.663C474.861 306.099 481.479 297.27 486.426 287.177C489.759 280.372 492.04 275.117 493.27 271.411C495.777 263.845 505.444 243.342 516.884 250.505C524.016 254.976 527.726 263.759 530.903 271.865C537.099 287.617 544.692 302.123 557.457 313.627C560.08 315.983 562.688 315.998 565.281 313.67Z" fill="white"/>
<path d="M684.22 324.908C685.958 323.905 686.662 322.263 686.33 319.984C683.809 302.831 681.761 285.62 680.185 268.352C679.489 260.711 679.438 253.692 680.034 247.295C680.168 245.869 679.787 244.799 678.889 244.084C678.805 244.017 678.702 243.974 678.59 243.956C678.479 243.938 678.361 243.948 678.247 243.983C675.409 244.885 672.655 245.996 669.984 247.316C631.925 266.091 600.703 296.277 580.258 333.683C576.591 340.386 579.696 342.927 584.487 348.348C593.103 358.103 599.075 368.34 605.969 379.261C607.324 381.413 608.685 380.686 610.27 379.304C615.822 374.48 621.405 369.695 627.02 364.949C644.405 350.239 663.472 336.892 684.22 324.908Z" fill="white"/>
<path d="M416.741 380.384C416.983 380.333 417.212 380.235 417.414 380.096C417.617 379.956 417.79 379.777 417.922 379.57C419.392 377.252 420.807 374.915 422.166 372.558C427.746 362.897 434.112 354.153 441.264 346.325C446.494 340.609 446.249 338.284 442.582 331.603C421.942 294.053 388.696 263.392 349.686 245.351C348.418 244.761 347.107 244.297 345.753 243.961C345.638 243.932 345.52 243.928 345.408 243.949C345.296 243.971 345.192 244.017 345.104 244.084C344.23 244.756 343.843 245.706 343.944 246.935C344.463 253.231 344.468 259.531 343.959 265.832C342.59 282.764 340.686 299.637 338.246 316.449C337.85 319.213 336.841 323.504 340.112 325.347C366.543 340.191 390.54 358.304 412.959 378.721C414.133 379.793 415.084 380.736 416.741 380.384Z" fill="white"/>
<path d="M574.718 571.475C609.824 538.835 623.785 494.935 613.109 447.99C607.84 424.819 598.768 403.257 585.892 383.306C574.063 364.978 560.008 348.11 545.859 331.545C532.45 315.851 522.009 298.394 514.536 279.172C513.679 276.969 511.777 273.06 509.788 278.229C502.483 297.242 492.412 314.656 479.323 330.242C466.838 345.108 454.836 359.046 443.101 375.719C421.899 405.832 405.589 446.565 407.311 483.956C408.831 516.777 423.873 547.366 447.546 569.892C468.221 589.567 492.736 594.966 520.652 593.468C540.838 592.389 559.77 585.377 574.718 571.475Z" fill="white"/>
<path d="M667.024 577.328C730.34 552.887 760.503 486.836 760.539 422.772C760.544 411.565 759.353 400.675 756.966 390.102C753.472 374.639 751.563 359.679 752.168 343.762C752.463 335.987 753.746 323.338 759.069 317.615C760.678 315.882 760.304 315.117 757.946 315.319C740.188 316.823 722.214 323.921 706.494 332.035C677.385 347.066 650.728 365.609 626.522 387.662C621.926 391.852 616.696 397.431 619.924 404.011C622.272 408.796 625.67 416.94 630.117 428.445C646.751 471.516 648.286 519.333 622.359 558.971C616.98 567.187 610.126 575.358 601.798 583.483C600.523 584.729 599.522 585.578 598.801 587.284C598.718 587.485 598.713 587.71 598.786 587.915C598.859 588.12 599.006 588.29 599.198 588.393C600.36 589.012 601.671 589.317 603.131 589.307C625.526 589.12 646.823 585.127 667.024 577.328Z" fill="white"/>
<path d="M422.087 583.167C382.018 544.443 373.07 494.834 389.38 442.036C392.853 430.782 397.033 419.796 401.922 409.079C403.844 404.87 404.936 401.995 405.2 400.455C405.877 396.509 401.044 390.959 398.342 388.411C376.766 368.088 351.329 350.522 325.416 336.203C307.831 326.484 287.443 317.529 267.085 315.419C265.781 315.283 261.927 315.189 264.945 317.802C268.943 321.258 270.687 331.214 271.184 336.325C272.836 353.402 271.823 369.739 268.144 385.337C265.517 396.481 264.025 406.559 263.67 415.573C262.071 456.082 273.093 500.075 297.824 532.384C325.344 568.344 364.087 585.254 408.982 588.71C414.121 589.103 418.492 589.24 422.094 589.12C428.037 588.911 423.787 584.815 422.087 583.167Z" fill="white"/>
<path d="M880.133 348.254C881.108 347.457 881.007 346.834 879.831 346.382C878.447 345.855 876.735 345.768 874.694 346.123C843.14 351.609 805.528 361.529 783.635 386.1C780.79 389.296 780.754 393.284 781.193 397.92C785.616 444.34 781.243 500.435 752.471 539.296C751.368 540.786 750.345 541.938 749.783 543.745C749.596 544.33 749.8 544.546 750.396 544.392C755.208 543.147 757.895 541.081 762.743 537.582C808.849 504.351 840.605 449.876 850.438 394.523C853.658 376.381 865.999 359.809 880.133 348.254Z" fill="#FEFEFE"/>
<path d="M143.636 346.598C142.781 346.886 142.707 347.309 143.413 347.865C158.109 359.514 170.378 376.813 173.735 395.264C183.856 450.884 215.36 504.33 261.537 537.798C265.881 540.944 268.648 542.931 273.021 544.256C274.423 544.683 274.754 544.263 274.015 542.996C272.365 540.159 269.837 537.093 268.439 534.998C241.914 495.223 238.614 441.972 243.11 395.235C243.693 389.159 240.134 385.445 235.437 381.111C213.335 360.723 181.004 351.746 152.151 346.771C148.362 346.116 146.561 345.627 143.636 346.598Z" fill="white"/>
<path d="M850.006 609.278C876.466 597.327 903.071 583.519 926.866 566.666C927.421 566.27 927.822 565.693 928.004 565.032C928.263 564.077 927.905 563.477 926.931 563.232C899.008 556.221 871.82 553.506 843.746 552.355C834.068 551.961 824.398 551.361 814.735 550.555C813.779 550.473 812.936 550.747 812.206 551.376C801.511 560.605 789.859 568.457 777.252 574.931C774.76 576.205 774.176 578.264 777.512 578.948C803.41 584.268 826.247 595.621 848.688 609.198C848.882 609.318 849.105 609.388 849.334 609.402C849.564 609.416 849.795 609.373 850.006 609.278Z" fill="white"/>
<path d="M247.994 579.571C249.051 578.89 249.144 578.081 248.275 577.145C247.905 576.747 247.478 576.423 246.993 576.173C234.155 569.613 222.439 561.763 211.844 552.625C211.08 551.963 210.192 551.673 209.179 551.754C188.265 553.388 168.289 553.741 146.215 555.901C129.814 557.509 113.6 560.239 97.5738 564.093C96.0033 564.472 95.547 565.353 96.205 566.735C96.4547 567.258 96.8173 567.683 97.2928 568.01C121.297 584.589 147.246 598.346 173.778 610.412C174.04 610.53 174.327 610.582 174.614 610.564C174.902 610.547 175.181 610.46 175.428 610.311C197.962 596.59 220.662 585.568 246.798 580.068C247.225 579.977 247.624 579.811 247.994 579.571Z" fill="white"/>
<path d="M885.169 677.661C886.509 677.683 899.051 678.36 893.936 673.745C836.196 621.617 754.43 589.307 676.432 609.767C670.172 611.409 658.256 615.778 648.56 617.204C629.764 619.975 610.414 616.599 592.087 615.62C590.524 615.534 582.96 614.245 583.586 617.427C583.954 619.291 588.046 621.394 589.487 621.962C598.679 625.54 607.1 629.435 614.578 635.525C620.068 639.989 624.971 645.066 629.289 650.759C639.562 664.293 657.817 672.262 674.422 677.697C694.312 684.213 714.678 688.237 735.447 690.577C764.89 693.888 796.17 693.089 824.878 685.062C824.888 685.062 827.397 684.285 832.406 682.73C849.466 677.431 867.461 677.438 885.169 677.661Z" fill="white"/>
<path d="M440.284 617.78C440.976 616.009 438.958 615.332 437.518 615.375C421.546 615.886 406.497 617.974 392.233 618.269C381.269 618.5 370.59 616.901 360.197 613.475C325.91 602.167 291.259 600.375 256.243 608.097C207.529 618.838 166.732 640.925 129.963 673.796C127.888 675.646 129.041 677.172 131.339 677.366C138.694 677.985 146.215 677.51 153.6 677.719C167.035 678.093 179.109 678.626 190.7 682.478C211.39 689.353 233.327 692.276 255.356 692.283C293.379 692.297 334.795 685.854 369.497 669.656C378.704 665.358 387.839 659.707 394.416 651.198C401.778 641.666 410.308 633.502 420.372 628.168C422.389 627.102 427.703 624.734 436.314 621.062C437.582 620.523 439.751 619.14 440.284 617.78Z" fill="white"/>
<path d="M557.414 740.43C581.93 728.53 603.83 711.238 602.353 680.851C601.2 657.029 586.929 640.601 568.055 628.082C554.1 618.816 543.395 616.599 526.783 619.918C517.6 621.751 508.429 621.871 499.271 620.278C489.523 618.579 481.873 617.225 472.378 619.846C465.318 621.797 457.919 626.455 451.587 631.048C443.036 637.246 434.975 645.006 429.687 653.941C417.634 674.278 418.463 702.75 436.315 719.776C455.484 738.069 481.001 745.592 502.375 761.041C505.747 763.474 507.86 765.377 508.715 766.75C509.411 767.873 510.189 768.662 511.049 769.118C512.135 769.694 513.066 769.507 513.844 768.557C515.703 766.282 517.511 764.172 519.867 762.344C531.12 753.561 544.598 746.657 557.414 740.43Z" fill="white"/>
</g>
<defs>
<radialGradient id="paint0_radial_1_2" cx="0" cy="0" r="1" gradientUnits="userSpaceOnUse" gradientTransform="translate(512.201 488.551) rotate(90) scale(331.344 457.252)">
<stop stop-color="#FF00FF"/>
<stop offset="0.197917" stop-color="#FF66CC"/>
<stop offset="0.526042" stop-color="#FFCC00"/>
<stop offset="0.744792" stop-color="#00FFCC"/>
<stop offset="0.927083" stop-color="#3385FF"/>
</radialGradient>
<clipPath id="clip0_1_2">
<rect width="1024" height="1024" fill="white"/>
</clipPath>
</defs>
</svg>
